<svg width="181" height="366" viewBox="0 0 181 366" fill="none" xmlns="http://www.w3.org/2000/svg">
  <path
    d="M107.163 157.016C111.196 151.674 112.013 148.178 114.429 141.983C116.853 135.781 118.684 129.365 119.899 122.818C121.099 116.277 121.799 109.653 121.993 103.005C122.128 96.3812 121.868 89.6412 122.072 82.9401C122.298 76.2358 122.69 69.5314 123.457 62.8611C124.132 56.1775 125.211 49.5407 126.687 42.9872C128.132 36.4206 130.136 29.9896 132.676 23.7642C135.172 17.5129 138.804 11.778 143.389 6.8497C139.089 11.9635 135.731 17.7996 133.47 24.0867C131.109 30.3154 129.279 36.7328 128.001 43.2701C125.437 56.3601 124.037 69.6512 123.816 82.9881C123.56 89.6612 123.769 96.3024 123.58 103.055C123.366 109.786 122.573 116.485 121.211 123.079C119.83 129.665 117.823 136.104 115.217 142.307C113.892 145.393 112.386 148.398 110.706 151.306C109.803 153.369 108.61 155.291 107.163 157.016Z"
    fill="#212751" />
  <path
    d="M110.91 149.995C108.854 148.78 106.943 147.335 105.213 145.687C104.361 144.862 103.535 144.002 102.716 143.116C101.972 142.193 101.215 141.259 100.516 140.277C99.8144 139.301 98.9404 138.367 98.1487 137.373C97.3889 136.387 96.975 135.179 96.9711 133.934C96.9578 132.592 97.2186 131.261 97.7375 130.022C98.3737 128.487 99.3533 127.119 100.601 126.022L101.758 125.857C103.2 126.491 104.56 127.297 105.807 128.258C106.704 128.947 107.505 129.752 108.189 130.653C108.777 131.447 109.071 132.421 109.019 133.408C108.943 134.453 108.966 135.502 109.088 136.543C109.23 137.563 109.441 138.573 109.648 139.601C109.826 140.644 110.025 141.697 110.264 142.749C110.681 144.887 111.243 147.032 111.812 149.252L110.91 149.995Z"
    fill="#212751" />
  <path
    d="M116.524 133.209C114.467 131.994 112.556 130.548 110.826 128.901C109.975 128.076 109.148 127.215 108.33 126.33C107.585 125.407 106.829 124.472 106.13 123.49C105.428 122.514 104.554 121.581 103.762 120.587C103.002 119.601 102.589 118.393 102.585 117.148C102.571 115.806 102.832 114.474 103.351 113.236C103.987 111.701 104.967 110.333 106.215 109.236L107.372 109.071C108.814 109.704 110.173 110.511 111.42 111.472C112.318 112.161 113.119 112.966 113.803 113.867C114.391 114.661 114.684 115.635 114.632 116.622C114.557 117.667 114.58 118.716 114.702 119.757C114.844 120.777 115.054 121.787 115.262 122.814C115.44 123.858 115.638 124.911 115.878 125.963C116.294 128.1 116.856 130.246 117.426 132.466L116.524 133.209Z"
    fill="#212751" />
  <path
    d="M121.997 115.177C119.941 113.962 118.029 112.516 116.3 110.869C115.448 110.044 114.621 109.183 113.803 108.298C113.058 107.374 112.302 106.44 111.603 105.458C110.901 104.482 110.027 103.549 109.235 102.555C108.476 101.569 108.062 100.36 108.058 99.1159C108.045 97.7734 108.305 96.4423 108.824 95.2041C109.461 93.6691 110.44 92.3004 111.688 91.2034L112.845 91.0387C114.287 91.6722 115.646 92.4785 116.894 93.44C117.791 94.1286 118.592 94.934 119.276 95.8347C119.864 96.6288 120.157 97.6029 120.106 98.5897C120.03 99.6344 120.053 100.684 120.175 101.724C120.317 102.745 120.527 103.755 120.735 104.782C120.913 105.826 121.111 106.879 121.351 107.931C121.767 110.068 122.329 112.214 122.899 114.434L121.997 115.177Z"
    fill="#212751" />
  <path
    d="M123.073 91.4479C121.017 90.2325 119.105 88.7871 117.376 87.1396C116.524 86.3144 115.698 85.454 114.879 84.5687C114.135 83.6452 113.378 82.7111 112.679 81.7291C111.977 80.753 111.103 79.8197 110.311 78.8257C109.552 77.84 109.138 76.6313 109.134 75.3867C109.12 74.0442 109.381 72.7131 109.9 71.4749C110.536 69.9399 111.516 68.5712 112.764 67.4741L113.921 67.3095C115.363 67.9431 116.722 68.7495 117.97 69.7108C118.867 70.3994 119.668 71.2048 120.351 72.1057C120.94 72.8997 121.233 73.8737 121.181 74.8605C121.106 75.9052 121.129 76.9548 121.251 77.9952C121.393 79.0153 121.603 80.0258 121.811 81.053C121.988 82.0968 122.187 83.1499 122.427 84.2014C122.843 86.339 123.405 88.4846 123.975 90.7046L123.073 91.4479Z"
    fill="#212751" />
  <path
    d="M124.091 67.2016C122.034 65.9863 120.123 64.541 118.393 62.8936C117.541 62.0682 116.715 61.2079 115.897 60.3225C115.152 59.3992 114.396 58.4649 113.697 57.4829C112.995 56.507 112.121 55.5736 111.329 54.5795C110.569 53.5939 110.155 52.3853 110.151 51.1407C110.138 49.7982 110.399 48.467 110.918 47.2287C111.554 45.6939 112.534 44.3254 113.781 43.2282L114.939 43.0635C116.381 43.697 117.74 44.5034 118.987 45.4649C119.884 46.1534 120.685 46.9587 121.369 47.8595C121.957 48.6536 122.251 49.6276 122.2 50.6145C122.123 51.6592 122.147 52.7087 122.269 53.749C122.411 54.7693 122.621 55.7798 122.828 56.8069C123.007 57.8507 123.205 58.9039 123.445 59.9555C123.861 62.0929 124.423 64.2387 124.993 66.4587L124.091 67.2016Z"
    fill="#212751" />
  <path
    d="M127.949 44.5598C125.893 43.3444 123.982 41.899 122.253 40.2516C121.4 39.4263 120.574 38.566 119.756 37.6806C119.011 36.7571 118.255 35.823 117.555 34.841C116.854 33.8649 115.98 32.9317 115.188 31.9377C114.428 30.9519 114.014 29.7432 114.011 28.4987C113.997 27.1561 114.258 25.825 114.777 24.5868C115.413 23.0519 116.393 21.6832 117.641 20.5861L118.797 20.4214C120.239 21.055 121.599 21.8613 122.846 22.8228C123.743 23.5114 124.545 24.3168 125.228 25.2176C125.817 26.0116 126.11 26.9856 126.058 27.9724C125.983 29.0172 126.006 30.0667 126.128 31.1071C126.27 32.1272 126.48 33.1377 126.688 34.165C126.865 35.2085 127.064 36.2618 127.304 37.3133C127.72 39.451 128.282 41.5965 128.851 43.8165L127.949 44.5598Z"
    fill="#212751" />
  <path
    d="M133.152 24.1381C131.096 22.9228 129.185 21.4775 127.455 19.8301C126.603 19.0049 125.777 18.1445 124.959 17.2592C124.214 16.3357 123.458 15.4014 122.759 14.4196C122.057 13.4435 121.183 12.5103 120.391 11.5163C119.631 10.5305 119.217 9.32185 119.213 8.07725C119.2 6.73474 119.461 5.40367 119.98 4.16541C120.616 2.63051 121.596 1.26189 122.843 0.164692L124.001 0C125.442 0.633671 126.802 1.44002 128.049 2.40136C128.946 3.08994 129.747 3.89537 130.431 4.79622C131.019 5.59019 131.313 6.56417 131.261 7.551C131.186 8.59575 131.209 9.64533 131.331 10.6857C131.473 11.7058 131.683 12.7163 131.89 13.7435C132.068 14.7871 132.267 15.8404 132.507 16.8919C132.923 19.0295 133.485 21.1751 134.054 23.3951L133.152 24.1381Z"
    fill="#212751" />
  <path
    d="M110.19 147.995C112.067 146.681 113.891 145.418 115.598 144.067C116.465 143.425 117.301 142.755 118.116 142.078C118.942 141.434 119.76 140.804 120.532 140.122C121.302 139.411 122.002 138.63 122.625 137.787C123.228 137.005 124.085 136.457 125.049 136.237C126.154 135.998 127.287 135.909 128.416 135.97C129.989 136.052 131.545 136.325 133.052 136.783L133.823 137.661C134.056 139.307 133.909 140.983 133.392 142.563C132.98 143.84 132.311 145.02 131.427 146.031C130.614 146.973 129.513 147.621 128.294 147.874C127.046 148.113 125.776 148.253 124.607 148.537C123.437 148.827 122.255 149.043 121.089 149.26C119.891 149.399 118.703 149.514 117.52 149.586C115.134 149.71 112.743 149.563 110.391 149.147L110.19 147.995Z"
    fill="#212751" />
  <path
    d="M117.768 132.263C119.128 130.418 120.454 128.64 121.641 126.814C122.258 125.929 122.837 125.028 123.393 124.127C123.97 123.252 124.544 122.394 125.058 121.502C125.561 120.583 125.977 119.619 126.298 118.622C126.62 117.688 127.258 116.895 128.101 116.379C129.072 115.8 130.117 115.354 131.207 115.052C132.723 114.629 134.286 114.391 135.861 114.344L136.872 114.931C137.617 116.416 138.012 118.052 138.026 119.713C138.043 121.056 137.786 122.387 137.27 123.627C136.8 124.779 135.963 125.745 134.889 126.374C133.782 126.998 132.622 127.536 131.605 128.178C130.589 128.826 129.537 129.408 128.501 129.985C127.41 130.499 126.322 130.987 125.223 131.432C123.002 132.311 120.688 132.934 118.326 133.29L117.768 132.263Z"
    fill="#212751" />
  <path
    d="M121.021 114.358C122.107 112.34 123.169 110.393 124.087 108.418C124.573 107.455 125.019 106.48 125.443 105.51C125.891 104.563 126.338 103.633 126.721 102.677C127.09 101.696 127.365 100.683 127.543 99.6507C127.73 98.6804 128.249 97.8056 129.011 97.1764C129.892 96.4665 130.863 95.8775 131.9 95.425C133.342 94.7919 134.855 94.3362 136.407 94.068L137.49 94.5062C138.438 95.8712 139.059 97.4352 139.307 99.0781C139.513 100.405 139.446 101.76 139.11 103.06C138.807 104.267 138.115 105.34 137.14 106.114C136.133 106.889 135.06 107.584 134.144 108.363C133.229 109.148 132.27 109.873 131.325 110.59C130.318 111.252 129.309 111.889 128.283 112.485C126.208 113.668 124.005 114.611 121.717 115.296L121.021 114.358Z"
    fill="#212751" />
  <path
    d="M123.038 89.3966C124.125 87.3788 125.186 85.4312 126.105 83.4565C126.591 82.4937 127.037 81.519 127.46 80.5489C127.909 79.6017 128.356 78.6715 128.739 77.7154C129.108 76.7349 129.383 75.7218 129.561 74.6895C129.748 73.7192 130.267 72.8443 131.029 72.2152C131.909 71.5052 132.881 70.9162 133.917 70.4638C135.359 69.8305 136.872 69.3749 138.424 69.1068L139.508 69.545C140.455 70.9099 141.077 72.474 141.325 74.1168C141.531 75.4436 141.464 76.7985 141.128 78.0984C140.825 79.3054 140.133 80.379 139.158 81.153C138.15 81.9275 137.077 82.6231 136.162 83.4017C135.247 84.1866 134.288 84.9113 133.343 85.6286C132.335 86.2912 131.327 86.9275 130.301 87.5235C128.226 88.7066 126.023 89.6498 123.735 90.3349L123.038 89.3966Z"
    fill="#212751" />
  <path
    d="M124.453 65.4799C125.539 63.4621 126.601 61.5147 127.519 59.5401C128.005 58.577 128.451 57.6026 128.875 56.6322C129.323 55.6853 129.77 54.7551 130.154 53.7988C130.522 52.8183 130.797 51.8052 130.975 50.7729C131.162 49.8026 131.681 48.9278 132.443 48.2988C133.324 47.5888 134.295 46.9997 135.332 46.5472C136.774 45.914 138.287 45.4584 139.839 45.1902L140.922 45.6284C141.87 46.9934 142.491 48.5574 142.74 50.2003C142.945 51.5271 142.878 52.882 142.542 54.1819C142.239 55.389 141.547 56.4626 140.572 57.2365C139.565 58.0108 138.492 58.7066 137.576 59.4852C136.661 60.2701 135.702 60.9948 134.757 61.7121C133.75 62.3745 132.741 63.0108 131.715 63.607C129.64 64.7901 127.438 65.7332 125.149 66.4182L124.453 65.4799Z"
    fill="#212751" />
  <path
    d="M126.892 42.8402C128.51 41.218 130.085 39.6563 131.531 38.0274C132.272 37.244 132.978 36.4381 133.662 35.6297C134.363 34.8508 135.058 34.0877 135.699 33.2814C136.333 32.4475 136.887 31.5556 137.353 30.6176C137.81 29.7416 138.558 29.0522 139.469 28.6676C140.515 28.2397 141.615 27.9535 142.737 27.8167C144.3 27.6231 145.881 27.62 147.444 27.8075L148.357 28.5378C148.874 30.117 149.021 31.7936 148.788 33.4388C148.606 34.769 148.153 36.0478 147.459 37.197C146.823 38.2667 145.852 39.0969 144.697 39.5592C143.51 40.0127 142.283 40.3718 141.182 40.8555C140.081 41.3454 138.954 41.7651 137.843 42.1817C136.689 42.528 135.539 42.8486 134.386 43.126C132.059 43.6652 129.679 43.9378 127.29 43.9388L126.892 42.8402Z"
    fill="#212751" />
  <path
    d="M132.092 23.309C133.178 21.2912 134.24 19.3436 135.158 17.3689C135.644 16.4061 136.09 15.4314 136.514 14.4613C136.962 13.5141 137.409 12.5839 137.792 11.6278C138.161 10.6473 138.436 9.63422 138.614 8.60195C138.801 7.63162 139.32 6.75672 140.083 6.12761C140.963 5.41765 141.934 4.82862 142.971 4.3762C144.412 3.7429 145.926 3.28723 147.478 3.0192L148.561 3.45741C149.509 4.82231 150.13 6.38634 150.379 8.02921C150.584 9.35599 150.517 10.7109 150.181 12.0108C149.878 13.2179 149.186 14.2915 148.211 15.0654C147.204 15.8399 146.131 16.5355 145.215 17.3141C144.3 18.099 143.341 18.8237 142.396 19.541C141.389 20.2036 140.38 20.8399 139.354 21.4359C137.279 22.6191 135.077 23.5623 132.788 24.2473L132.092 23.309Z"
    fill="#212751" />
  <path
    d="M173.647 111.36C169.089 115.661 165.3 120.709 162.443 126.287C162.293 126.537 162.159 126.804 162.026 127.071C161.975 127.151 161.93 127.235 161.892 127.322C161.875 127.339 161.875 127.355 161.859 127.372C159.102 132.702 156.768 138.24 154.88 143.935V143.952C154.842 144.071 154.798 144.188 154.746 144.302V144.336C154.579 144.837 154.429 145.321 154.262 145.822C154.195 146.039 154.128 146.256 154.062 146.473C153.994 146.64 153.943 146.813 153.911 146.991C153.01 149.829 152.175 152.701 151.407 155.573H149.837C150.689 152.384 151.657 149.195 152.759 146.072C152.843 145.855 152.91 145.621 152.993 145.405C153.444 144.119 153.911 142.85 154.412 141.581V141.564C156.249 136.612 158.448 131.801 160.991 127.172C161.024 127.122 161.041 127.088 161.074 127.038C161.091 127.022 161.091 126.988 161.108 126.971C161.475 126.32 161.859 125.686 162.276 125.035V125.018C165.246 119.84 169.093 115.219 173.647 111.36Z"
    fill="#212751" />
  <path
    d="M154.07 147.102C152.163 145.664 150.426 144.013 148.892 142.182C148.138 141.266 147.414 140.319 146.7 139.347C146.063 138.346 145.417 137.333 144.832 136.279C144.244 135.23 143.48 134.205 142.805 133.128C142.161 132.064 141.885 130.816 142.021 129.579C142.158 128.244 142.566 126.95 143.221 125.778C144.025 124.324 145.152 123.074 146.515 122.124L147.683 122.09C149.045 122.881 150.306 123.835 151.437 124.93C152.252 125.715 152.957 126.605 153.535 127.577C154.031 128.432 154.213 129.432 154.051 130.407C153.859 131.437 153.764 132.483 153.769 133.53C153.795 134.56 153.891 135.588 153.982 136.631C154.042 137.688 154.121 138.757 154.241 139.829C154.415 142 154.733 144.195 155.05 146.465L154.07 147.102Z"
    fill="#212751" />
  <path
    d="M161.531 127.393C159.624 125.955 157.887 124.304 156.353 122.473C155.599 121.557 154.874 120.61 154.16 119.638C153.524 118.637 152.877 117.624 152.293 116.57C151.704 115.521 150.941 114.496 150.265 113.419C149.621 112.354 149.345 111.107 149.481 109.87C149.618 108.534 150.027 107.241 150.681 106.069C151.486 104.615 152.613 103.365 153.976 102.414L155.144 102.381C156.506 103.172 157.766 104.126 158.897 105.221C159.712 106.006 160.417 106.896 160.996 107.868C161.491 108.723 161.674 109.723 161.511 110.698C161.319 111.728 161.225 112.773 161.229 113.821C161.256 114.85 161.352 115.878 161.443 116.922C161.502 117.979 161.581 119.048 161.702 120.12C161.876 122.291 162.193 124.486 162.51 126.756L161.531 127.393Z"
    fill="#212751" />
  <path
    d="M153.212 145.274C155.003 143.844 156.743 142.469 158.362 141.012C159.186 140.317 159.979 139.595 160.749 138.869C161.533 138.173 162.309 137.493 163.036 136.764C163.76 136.006 164.41 135.182 164.978 134.302C165.531 133.483 166.352 132.882 167.299 132.602C168.388 132.294 169.512 132.133 170.643 132.123C172.218 132.106 173.789 132.28 175.321 132.642L176.146 133.47C176.483 135.097 176.441 136.779 176.026 138.388C175.695 139.689 175.102 140.909 174.283 141.973C173.531 142.965 172.473 143.681 171.273 144.011C170.042 144.328 168.783 144.548 167.635 144.905C166.486 145.268 165.319 145.559 164.169 145.848C162.982 146.063 161.805 146.253 160.628 146.399C158.255 146.674 155.859 146.678 153.485 146.411L153.212 145.274Z"
    fill="#212751" />
  <path
    d="M160.57 126.45C161.876 124.567 163.15 122.75 164.284 120.891C164.874 119.989 165.427 119.071 165.956 118.154C166.508 117.263 167.057 116.389 167.545 115.482C168.021 114.549 168.409 113.573 168.701 112.567C168.996 111.624 169.61 110.813 170.438 110.273C171.392 109.666 172.423 109.19 173.504 108.857C175.008 108.389 176.563 108.106 178.135 108.014L179.163 108.571C179.951 110.033 180.393 111.657 180.456 113.318C180.511 114.659 180.293 115.998 179.813 117.252C179.376 118.417 178.568 119.407 177.513 120.066C176.425 120.723 175.281 121.294 174.283 121.965C173.286 122.642 172.252 123.255 171.233 123.862C170.157 124.407 169.083 124.926 167.997 125.403C165.803 126.346 163.508 127.036 161.157 127.461L160.57 126.45Z"
    fill="#212751" />
  <path
    d="M82.3161 156.341C82.3829 156.558 82.4495 156.775 82.5329 156.992L81.4333 156.074C81.0159 155.99 80.6696 155.633 80.2689 155.532C79.4341 153.044 79.2437 152.384 78.5091 149.879C78.4757 149.779 78.459 149.679 78.4256 149.579C76.9398 144.436 75.5538 139.26 74.3851 134.034C74.1012 132.815 73.834 131.58 73.5837 130.361C73.4667 129.76 73.333 129.175 73.2162 128.574V128.558C72.0078 122.817 71.116 117.015 70.5448 111.176C70.5114 110.942 70.4947 110.709 70.478 110.475C70.3612 109.106 70.2444 107.737 70.1608 106.368V106.351C69.7991 101.097 69.8047 95.8253 70.1775 90.5726C70.1748 90.522 70.1804 90.4712 70.1942 90.4224V90.3389C70.2611 89.5709 70.3444 88.8361 70.4445 88.0681V88.0514C71.0024 82.1195 72.5842 76.3291 75.1197 70.9373C72.7705 76.7347 71.4212 82.8883 71.1292 89.1367C71.0959 89.4541 71.0791 89.7545 71.0625 90.0717V90.0884C71.0625 90.1719 71.0457 90.2555 71.0457 90.3389V90.4057C70.7589 96.3831 70.9488 102.374 71.6134 108.321C71.6135 108.484 71.6303 108.646 71.6633 108.805C71.6967 109.323 71.7636 109.824 71.8137 110.342C71.8471 110.558 71.8639 110.776 71.8973 110.993C71.9103 111.172 71.9326 111.35 71.9639 111.527C72.7945 118.296 73.976 125.017 75.5036 131.663V131.697C75.5705 132.031 75.6373 132.314 75.7374 132.648C75.7381 132.718 75.7553 132.787 75.7876 132.849C75.8271 133.113 75.8828 133.375 75.9545 133.633C77.19 138.926 78.6094 144.169 80.1787 149.378C80.663 151.048 81.1638 152.684 81.6813 154.337V154.354C81.815 154.805 81.9654 155.222 82.0987 155.673V155.69C82.1656 155.907 82.2492 156.124 82.3161 156.341Z"
    fill="#212751" />
  <path
    d="M82.734 156.674L83.001 155.472L81.4337 156.394C81.0163 156.31 80.3963 155.773 79.9956 155.673C78.0757 155.172 77.1571 156.157 75.354 155.339C74.2854 154.821 73.2334 154.253 72.1815 153.669C71.1798 153.018 70.178 152.367 69.2095 151.649C68.2411 150.947 67.1057 150.33 66.054 149.628C65.0246 148.927 64.2557 147.906 63.8666 146.723C63.4366 145.451 63.2717 144.104 63.3823 142.766C63.4983 141.109 64.0017 139.501 64.8519 138.074L65.9036 137.557C67.4686 137.716 69.0095 138.058 70.4951 138.575C71.5581 138.957 72.5681 139.473 73.5005 140.111C74.3087 140.687 74.8928 141.525 75.1535 142.482C75.403 143.498 75.7496 144.488 76.1886 145.437C76.6395 146.356 77.157 147.257 77.6747 148.176C77.925 148.643 78.1586 149.111 78.4256 149.579C78.6926 150.046 78.9604 150.513 79.2441 150.964C79.9621 152.266 80.7636 153.552 81.5817 154.871C81.7486 155.138 81.9153 155.406 82.0987 155.673V155.69C82.2324 155.89 82.3666 156.09 82.4999 156.307C82.5835 156.424 82.6504 156.557 82.734 156.674Z"
    fill="#212751" />
  <path
    d="M75.5358 134.295C73.2037 133.779 70.9379 132.999 68.7822 131.971C67.7158 131.451 66.6628 130.89 65.6099 130.303C64.6153 129.657 63.606 129.004 62.6362 128.288C61.6661 127.578 60.5451 126.963 59.4836 126.264C58.4552 125.563 57.6863 124.543 57.2959 123.361C56.8658 122.089 56.7 120.743 56.8087 119.405C56.9363 117.748 57.4421 116.143 58.2873 114.712L59.3361 114.196C60.9034 114.35 62.4462 114.694 63.9305 115.221C64.9971 115.596 66.0087 116.113 66.9384 116.757C67.7445 117.328 68.3262 118.163 68.5836 119.117C68.8363 120.134 69.1847 121.124 69.624 122.075C70.0756 123.001 70.5897 123.896 71.1061 124.808C71.5993 125.744 72.1154 126.684 72.6702 127.608C73.7301 129.511 74.9313 131.376 76.162 133.309L75.5358 134.295Z"
    fill="#212751" />
  <path
    d="M72.1675 111.575C69.8354 111.059 67.5695 110.279 65.4138 109.251C64.3474 108.731 63.2949 108.17 62.242 107.583C61.2473 106.937 60.2377 106.284 59.2683 105.568C58.2977 104.858 57.1772 104.243 56.1157 103.544C55.0872 102.843 54.3183 101.823 53.9279 100.641C53.4978 99.3694 53.3321 98.0231 53.4408 96.6849C53.5683 95.0282 54.0742 93.4229 54.9194 91.9924L55.9677 91.4763C57.535 91.6304 59.0779 91.9744 60.5622 92.5007C61.6289 92.8763 62.6406 93.3929 63.5705 94.0367C64.3764 94.6086 64.9581 95.4432 65.2157 96.3973C65.4682 97.4138 65.8164 98.4041 66.2555 99.3551C66.7076 100.281 67.2217 101.176 67.7381 102.088C68.2314 103.024 68.7474 103.964 69.3022 104.888C70.362 106.791 71.5634 108.656 72.794 110.589L72.1675 111.575Z"
    fill="#212751" />
  <path
    d="M70.7668 90.5481C68.4348 90.0318 66.169 89.2519 64.0132 88.2236C62.9468 87.7039 61.8943 87.143 60.841 86.5556C59.8464 85.9093 58.8371 85.2564 57.8677 84.5405C56.8972 83.8308 55.7766 83.2152 54.7151 82.5166C53.6865 81.8158 52.9176 80.7956 52.5273 79.6138C52.0971 78.3419 51.9312 76.9956 52.0398 75.6573C52.1675 74.0007 52.6735 72.3954 53.5187 70.9648L54.5671 70.4488C56.1344 70.603 57.6772 70.947 59.1615 71.4732C60.2282 71.8489 61.2399 72.3654 62.1698 73.0091C62.9756 73.5811 63.5572 74.4157 63.8147 75.3697C64.0673 76.3863 64.4157 77.3766 64.855 78.3275C65.307 79.253 65.8211 80.1482 66.3371 81.0601C66.8308 81.9969 67.3464 82.9362 67.9016 83.8609C68.9615 85.7634 70.1623 87.6283 71.3934 89.5612L70.7668 90.5481Z"
    fill="#212751" />
  <path
    d="M81.434 155.719C81.8395 153.463 82.2435 151.282 82.5028 149.12C82.6654 148.054 82.7865 146.989 82.8875 145.935C83.0196 144.895 83.1553 143.872 83.2226 142.844C83.2683 141.798 83.2149 140.749 83.0632 139.713C82.9394 138.733 83.161 137.74 83.6897 136.905C84.306 135.957 85.0461 135.095 85.8905 134.343C87.0644 133.293 88.3615 132.389 89.7533 131.652L90.9191 131.732C92.2437 132.735 93.3206 134.028 94.0673 135.513C94.6754 136.71 95.0325 138.018 95.1169 139.358C95.2041 140.6 94.8796 141.835 94.1936 142.874C93.4766 143.923 92.6732 144.918 92.0442 145.943C91.4189 146.973 90.7324 147.96 90.0574 148.935C89.3057 149.878 88.5446 150.796 87.755 151.682C86.1504 153.451 84.3497 155.032 82.3877 156.394L81.434 155.719Z"
    fill="#212751" />
  <path
    d="M75.3457 132.546C75.7513 130.291 76.1552 128.11 76.4145 125.947C76.5771 124.881 76.6983 123.816 76.7993 122.762C76.9313 121.723 77.0675 120.7 77.1344 119.672C77.18 118.625 77.1267 117.577 76.975 116.541C76.8514 115.56 77.0729 114.567 77.6015 113.732C78.2177 112.784 78.9578 111.922 79.8023 111.17C80.9762 110.12 82.2733 109.217 83.665 108.48L84.8309 108.56C86.1554 109.563 87.2324 110.856 87.979 112.34C88.5871 113.537 88.9443 114.846 89.0287 116.186C89.1159 117.427 88.7913 118.663 88.1054 119.702C87.3884 120.751 86.5849 121.745 85.9563 122.77C85.3306 123.801 84.6442 124.787 83.9691 125.763C83.2175 126.706 82.4564 127.624 81.6668 128.509C80.0623 130.278 78.2616 131.859 76.2995 133.222L75.3457 132.546Z"
    fill="#212751" />
  <path
    d="M70.6274 110.27C71.6619 108.225 72.6741 106.251 73.5415 104.253C74.0026 103.279 74.4236 102.293 74.8227 101.312C75.2466 100.354 75.6702 99.4127 76.0289 98.4472C76.3724 97.4576 76.6215 96.4378 76.7728 95.4013C76.9352 94.4266 77.4318 93.5387 78.1775 92.8903C79.0395 92.1583 79.9955 91.5447 81.02 91.0659C82.4453 90.3962 83.9467 89.902 85.4913 89.5944L86.5858 90.0049C87.5677 91.3452 88.229 92.8929 88.5188 94.529C88.7586 95.85 88.7262 97.2062 88.4234 98.5142C88.1512 99.7287 87.4863 100.82 86.5317 101.618C85.5444 102.418 84.4894 103.141 83.5934 103.943C82.6995 104.751 81.7591 105.5 80.8325 106.241C79.8428 106.929 78.8502 107.59 77.8401 108.212C75.7961 109.448 73.618 110.447 71.3481 111.19L70.6274 110.27Z"
    fill="#212751" />
  <path
    d="M69.501 90.0894C69.9066 87.8338 70.3106 85.6527 70.5694 83.4904C70.732 82.4242 70.8531 81.3593 70.9547 80.3054C71.0863 79.2659 71.2225 78.2428 71.2894 77.2149C71.3352 76.1684 71.2818 75.1199 71.1299 74.0835C71.0065 73.1031 71.2282 72.1103 71.7569 71.2755C72.3731 70.3272 73.1132 69.4655 73.9577 68.7133C75.1315 67.6634 76.4284 66.7599 77.82 66.0227L78.9863 66.1026C80.3109 67.1056 81.3878 68.399 82.134 69.8834C82.7421 71.0805 83.0994 72.3891 83.1841 73.729C83.2711 74.9705 82.9466 76.2061 82.2608 77.2447C81.5438 78.2939 80.7404 79.2885 80.1114 80.3131C79.4861 81.3434 78.7996 82.3305 78.1246 83.3058C77.3729 84.2484 76.6118 85.1669 75.8222 86.0522C74.2176 87.8214 72.4169 89.4024 70.4549 90.7647L69.501 90.0894Z"
    fill="#212751" />
  <path
    d="M36.8847 155.255C36.9203 155.37 36.9481 155.487 36.9681 155.606V155.623C36.7176 155.807 36.4673 155.99 36.2166 156.157L35.6824 155.79C35.6079 155.775 35.5352 155.753 35.4654 155.723C35.468 155.689 35.4622 155.654 35.4486 155.623C35.4152 155.439 35.3818 155.289 35.3316 155.105V155.088C35.0145 153.552 34.664 152.05 34.2967 150.53V150.514C33.7957 148.46 33.2446 146.423 32.6604 144.386C31.4748 140.529 30.1559 136.672 28.8702 132.782C28.0354 130.294 27.234 127.806 26.4993 125.302C26.4658 125.168 26.4159 125.034 26.3825 124.901V124.884C24.8962 119.775 23.5274 114.632 22.3752 109.44C22.0913 108.221 21.8241 107.002 21.5736 105.783C21.4568 105.182 21.3233 104.598 21.2064 103.997V103.98C20.006 98.2381 19.1142 92.436 18.5349 86.5986C18.5017 86.3648 18.485 86.1146 18.4682 85.8806C18.3513 84.5115 18.2343 83.1592 18.1509 81.79V81.7732C17.7891 76.5143 17.7947 71.2365 18.1677 65.9783C18.1649 65.9276 18.1706 65.8767 18.1843 65.8279V65.7445C18.251 64.993 18.3346 64.2585 18.4349 63.4905V63.4738C18.9903 57.536 20.5721 51.7397 23.11 46.343C20.7631 52.1519 19.4193 58.317 19.136 64.5756C19.1025 64.8763 19.0858 65.1602 19.0691 65.4606V65.4773C19.0719 65.5612 19.0663 65.6451 19.0524 65.7278V65.8112C18.7599 71.7882 18.9442 77.7791 19.6035 83.7269C19.6036 83.8895 19.6205 84.0517 19.6537 84.2109V84.2276C19.6871 84.7453 19.7539 85.2296 19.8039 85.7471C19.8373 85.9642 19.854 86.1979 19.8872 86.415C19.904 86.5819 19.9207 86.7656 19.9541 86.9327C20.7912 93.706 21.9727 100.432 23.494 107.085V107.102C23.5606 107.42 23.6275 107.703 23.7109 108.02C23.7254 108.1 23.7477 108.179 23.7777 108.254V108.271C23.8174 108.53 23.8732 108.787 23.9448 109.039V109.056C25.1804 114.349 26.6161 119.591 28.1689 124.801C28.653 126.47 29.1541 128.123 29.655 129.776C29.6717 129.793 29.6717 129.81 29.655 129.81C29.8052 130.227 29.9554 130.661 30.0891 131.079V131.095C30.1559 131.329 30.2393 131.546 30.3061 131.763C30.3728 131.98 30.4396 132.197 30.5065 132.398V132.414C31.742 136.238 33.0277 140.045 34.1797 143.952C34.8309 146.34 35.4486 148.727 36.0165 151.131C36.2667 152.217 36.5005 153.302 36.7176 154.404V154.421C36.7909 154.695 36.8467 154.974 36.8847 155.255Z"
    fill="#212751" />
  <path
    d="M37.068 154.971L36.8847 155.255L36.4504 155.956C36.183 155.906 35.9329 155.84 35.6824 155.79C35.6079 155.775 35.5352 155.753 35.4654 155.723C33.4777 155.213 31.543 154.514 29.6882 153.636C28.6196 153.118 27.5676 152.55 26.5157 151.966C25.5307 151.315 24.512 150.664 23.5437 149.946C22.5753 149.244 21.4566 148.627 20.388 147.925C19.3646 147.218 18.5973 146.199 18.2008 145.02C17.7707 143.748 17.606 142.401 17.7166 141.063C17.8494 139.406 18.3576 137.802 19.2026 136.371L20.2545 135.854C21.8213 136.011 23.3631 136.359 24.8461 136.889C25.9149 137.257 26.9266 137.774 27.8513 138.425C28.6542 138.995 29.233 139.828 29.4876 140.779C29.7504 141.793 30.1024 142.782 30.5397 143.734C30.9905 144.669 31.508 145.554 32.0088 146.473C32.5098 147.408 33.0275 148.343 33.5784 149.278C33.8122 149.695 34.0462 150.096 34.2967 150.514V150.53C34.7642 151.298 35.2314 152.066 35.7324 152.851C36.0497 153.368 36.3838 153.87 36.7176 154.404V154.421C36.8346 154.604 36.9512 154.788 37.068 154.971Z"
    fill="#212751" />
  <path
    d="M30.0958 133.069C27.7637 132.553 25.4979 131.773 23.3421 130.745C22.2758 130.225 21.2233 129.664 20.1704 129.077C19.1753 128.431 18.166 127.778 17.1966 127.062C16.2261 126.352 15.1055 125.737 14.0441 125.038C13.0155 124.337 12.2465 123.317 11.8562 122.135C11.4261 120.863 11.2602 119.517 11.3687 118.179C11.4966 116.522 12.0025 114.917 12.8476 113.486L13.896 112.97C15.4634 113.124 17.0061 113.468 18.4904 113.995C19.5571 114.37 20.5689 114.887 21.4988 115.531C22.3046 116.102 22.8861 116.937 23.1436 117.891C23.3963 118.908 23.7446 119.898 24.1839 120.849C24.6359 121.774 25.1501 122.67 25.6661 123.581C26.1597 124.518 26.6753 125.458 27.2306 126.382C28.2904 128.285 29.4913 130.149 30.7224 132.083L30.0958 133.069Z"
    fill="#212751" />
  <path
    d="M23.5283 109.708C21.1962 109.192 18.9304 108.412 16.7746 107.383C15.7083 106.864 14.6558 106.303 13.6029 105.715C12.6083 105.069 11.5985 104.416 10.6292 103.7C9.65857 102.991 8.53799 102.375 7.47652 101.676C6.44801 100.976 5.67912 99.9554 5.28876 98.7737C4.85859 97.5018 4.69267 96.1555 4.80121 94.8172C4.92908 93.1606 5.43502 91.5553 6.28013 90.1247L7.32857 89.6087C8.89587 89.7628 10.4386 90.1068 11.9229 90.633C12.9897 91.0087 14.0014 91.5253 14.9313 92.169C15.737 92.7409 16.3186 93.5755 16.5761 94.5294C16.8289 95.5459 17.1773 96.5362 17.6164 97.4872C18.0684 98.4129 18.5826 99.3081 19.0986 100.22C19.5922 101.157 20.1083 102.096 20.6631 103.021C21.7229 104.923 22.9238 106.788 24.1549 108.721L23.5283 109.708Z"
    fill="#212751" />
  <path
    d="M20.1603 86.9874C17.8282 86.4713 15.5624 85.6915 13.4067 84.6629C12.3403 84.1434 11.2874 83.5823 10.2344 82.9951C9.23982 82.3488 8.23053 81.6959 7.26076 80.9797C6.29061 80.2702 5.16962 79.6547 4.10854 78.9558C3.07987 78.2551 2.31081 77.2349 1.92037 76.0531C1.49052 74.7812 1.32476 73.435 1.43324 72.0968C1.56077 70.4402 2.06659 68.8348 2.91179 67.4043L3.96065 66.8883C5.52794 67.0424 7.0707 67.3864 8.55503 67.9126C9.62165 68.2883 10.6332 68.8048 11.5629 69.4486C12.3689 70.0203 12.9507 70.855 13.2082 71.809C13.4608 72.8256 13.8092 73.8159 14.2485 74.7668C14.7002 75.6925 15.2142 76.5877 15.7307 77.4993C16.2243 78.4362 16.7399 79.3755 17.2947 80.3004C18.3546 82.2028 19.5559 84.0675 20.7869 86.0007L20.1603 86.9874Z"
    fill="#212751" />
  <path
    d="M18.759 65.9603C16.4269 65.4441 14.1612 64.6642 12.0054 63.6358C10.939 63.1163 9.88649 62.5552 8.83356 61.968C7.83894 61.3217 6.82922 60.6688 5.85988 59.9528C4.8893 59.2432 3.76872 58.6276 2.70724 57.9287C1.67876 57.228 0.90988 56.2079 0.519489 55.0262C0.0894436 53.7543 -0.0763289 52.4079 0.0323615 51.0697C0.159919 49.413 0.665729 47.8077 1.51091 46.3772L2.55935 45.8611C4.12666 46.0152 5.66942 46.3592 7.15373 46.8855C8.22051 47.2611 9.23225 47.7777 10.1621 48.4215C10.968 48.9934 11.5497 49.828 11.8073 50.7821C12.0598 51.7986 12.408 52.789 12.8471 53.7399C13.2992 54.6654 13.8133 55.5606 14.3297 56.4723C14.8229 57.409 15.339 58.3486 15.8938 59.2733C16.9536 61.1758 18.1549 63.0404 19.3856 64.9736L18.759 65.9603Z"
    fill="#212751" />
  <path
    d="M48.9567 139.126C49.0367 140.366 48.7083 141.597 48.0216 142.632C47.3038 143.685 46.5021 144.686 45.8676 145.705C45.2499 146.74 44.5653 147.725 43.8808 148.694C43.1296 149.645 42.3781 150.563 41.5931 151.448C40.194 152.985 38.6444 154.378 36.9681 155.606V155.623C36.7176 155.807 36.4673 155.99 36.2166 156.157L35.6824 155.79L35.4486 155.623L35.2652 155.489C35.282 155.355 35.3151 155.239 35.3316 155.105V155.088C35.4653 154.337 35.5989 153.585 35.7324 152.851C35.8324 152.283 35.9329 151.699 36.0165 151.131C36.1332 150.38 36.2336 149.628 36.3338 148.877C36.5008 147.825 36.6176 146.757 36.7178 145.705C36.8515 144.653 36.985 143.634 37.0517 142.616C37.1018 141.567 37.0515 140.516 36.9015 139.477C36.773 138.498 36.9915 137.506 37.5192 136.672C38.1347 135.719 38.8762 134.855 39.7233 134.101C40.8983 133.055 42.193 132.153 43.5802 131.412L44.749 131.496C46.071 132.501 47.1496 133.79 47.9045 135.269C48.51 136.472 48.8677 137.783 48.9567 139.126Z"
    fill="#212751" />
  <path
    d="M29.4256 131.131C29.8312 128.875 30.2357 126.694 30.4945 124.532C30.6572 123.465 30.7782 122.4 30.8792 121.347C31.0113 120.307 31.1474 119.284 31.2143 118.256C31.26 117.21 31.2066 116.161 31.0549 115.125C30.9314 114.144 31.1528 113.152 31.6814 112.317C32.2976 111.368 33.0378 110.507 33.8822 109.755C35.0561 108.705 36.3532 107.801 37.745 107.064L38.9108 107.144C40.2355 108.147 41.3125 109.44 42.0589 110.925C42.667 112.122 43.0243 113.43 43.109 114.77C43.1958 116.012 42.8712 117.247 42.1854 118.286C41.4683 119.335 40.6649 120.33 40.0363 121.354C39.411 122.385 38.7245 123.372 38.0491 124.347C37.2978 125.29 36.5363 126.208 35.7468 127.093C34.1422 128.863 32.3415 130.444 30.3795 131.806L29.4256 131.131Z"
    fill="#212751" />
  <path
    d="M23.3383 107.959C23.7439 105.703 24.1479 103.522 24.4067 101.36C24.5694 100.294 24.6905 99.2287 24.792 98.1747C24.9236 97.1353 25.0598 96.1121 25.1267 95.0843C25.1726 94.0377 25.1192 92.9892 24.9672 91.9528C24.8438 90.9724 25.0655 89.9796 25.5942 89.1448C26.2103 88.1964 26.9504 87.3347 27.795 86.5826C28.9688 85.5327 30.2657 84.6292 31.6573 83.8921L32.8236 83.972C34.1482 84.9749 35.2251 86.2683 35.9714 87.7528C36.5794 88.9498 36.9367 90.2584 37.0214 91.5984C37.1084 92.8399 36.7839 94.0754 36.0981 95.114C35.3811 96.1632 34.5772 97.1579 33.9487 98.1825C33.3234 99.2128 32.6369 100.2 31.9619 101.175C31.2102 102.118 30.4491 103.036 29.6596 103.922C28.0549 105.691 26.2542 107.272 24.2923 108.634L23.3383 107.959Z"
    fill="#212751" />
  <path
    d="M18.62 85.6821C19.6546 83.6372 20.6663 81.6632 21.5338 79.6658C21.9952 78.6907 22.4159 77.7051 22.815 76.7245C23.2389 75.7662 23.6624 74.825 24.0212 73.8592C24.3647 72.8697 24.6139 71.8499 24.7655 70.8134C24.9278 69.8387 25.4245 68.9509 26.1702 68.3026C27.0322 67.5705 27.9881 66.9569 29.0127 66.4781C30.4381 65.8084 31.9395 65.3144 33.484 65.0067L34.5781 65.417C35.56 66.7575 36.2214 68.3053 36.5115 69.9413C36.7512 71.2624 36.7186 72.6185 36.4157 73.9266C36.1436 75.1409 35.4788 76.2318 34.5243 77.0303C33.5366 77.8303 32.4821 78.553 31.5862 79.3546C30.6918 80.1628 29.7514 80.9116 28.8253 81.6527C27.8351 82.3408 26.8429 83.0026 25.8328 83.6247C23.7886 84.8603 21.6105 85.8593 19.3404 86.6025L18.62 85.6821Z"
    fill="#212751" />
  <path
    d="M17.4937 65.5015C17.8993 63.246 18.3033 61.065 18.5625 58.9027C18.7252 57.8365 18.8462 56.7716 18.9473 55.7177C19.0793 54.6782 19.2151 53.655 19.2823 52.6272C19.328 51.5807 19.2747 50.5323 19.123 49.4958C18.9994 48.5155 19.2209 47.5227 19.7495 46.6878C20.3657 45.7395 21.1058 44.8779 21.9503 44.1257C23.1241 43.0757 24.4212 42.1722 25.813 41.4351L26.9789 41.5148C28.3034 42.5179 29.3804 43.8114 30.127 45.2958C30.7351 46.4928 31.0923 47.8014 31.1767 49.1414C31.2638 50.3829 30.9393 51.6185 30.2534 52.657C29.5364 53.7063 28.7329 54.7007 28.1043 55.7255C27.4786 56.7558 26.7921 57.7427 26.1171 58.7181C25.3654 59.6608 24.6044 60.5792 23.8148 61.4644C22.2102 63.2337 20.4095 64.8147 18.4475 66.177L17.4937 65.5015Z"
    fill="#212751" />
  <path
    d="M14.7687 188.292C13.4225 182.912 12.1141 177.525 10.8434 172.131L7.0993 155.935C7.03686 155.664 7.03503 155.383 7.09393 155.111C7.15283 154.84 7.27099 154.584 7.44 154.364C7.60901 154.143 7.82469 153.962 8.0716 153.835C8.31852 153.707 8.5906 153.635 8.86837 153.625L9.0179 153.621L29.8883 152.973L50.7592 152.49C64.673 152.272 78.5872 151.998 92.5009 151.946C106.415 151.816 120.328 151.77 134.242 151.941C148.156 152.071 162.07 152.578 175.984 152.934L176.126 152.937C176.809 152.955 177.457 153.243 177.928 153.738C178.398 154.233 178.653 154.895 178.635 155.578C178.631 155.733 178.613 155.888 178.582 156.04C175.014 173.08 171.313 190.097 168.075 207.198C164.823 224.295 161.866 241.446 159.076 258.626L155.071 284.429L151.292 310.27C148.773 327.498 145.996 344.679 143.143 361.846C142.993 362.75 142.529 363.573 141.834 364.17C141.138 364.766 140.255 365.099 139.339 365.11L139.251 365.111L115.876 365.381C108.084 365.449 100.292 365.613 92.5009 365.601L69.1256 365.619L45.6807 365.397C44.6947 365.387 43.7435 365.031 42.9933 364.391C42.2431 363.751 41.7416 362.868 41.5765 361.896C39.8503 351.714 38.3108 341.499 36.669 331.302L32.034 300.659C30.5303 290.437 29.0793 280.206 27.6812 269.966C26.3717 259.71 24.9366 249.476 23.7669 239.196C23.7549 239.09 23.7836 238.984 23.8473 238.898C23.911 238.813 24.0048 238.755 24.1096 238.737C24.2145 238.718 24.3224 238.74 24.4115 238.798C24.5006 238.857 24.5641 238.947 24.5891 239.05C27.0186 249.108 29.1824 259.213 31.4717 269.296C33.6725 279.394 35.8178 289.502 37.9077 299.62L44.0519 329.997C46.0034 340.139 48.0567 350.264 49.924 360.421L45.7502 356.92L69.1256 356.699L92.5009 356.717C100.292 356.704 108.084 356.869 115.876 356.936L139.251 357.207L135.36 360.471C138.565 343.363 141.846 326.268 145.385 309.22L155.941 258.066C159.31 240.989 162.511 223.882 165.418 206.722C168.338 189.564 170.796 172.323 173.387 155.106L175.984 158.212C162.07 158.567 148.156 159.075 134.242 159.205C120.329 159.375 106.415 159.329 92.501 159.2C78.5872 159.147 64.673 158.873 50.7593 158.656L29.8884 158.172L9.01795 157.525L10.9357 155.211L13.353 171.657C14.1411 177.142 14.8864 182.636 15.5888 188.137C15.6025 188.243 15.5752 188.35 15.5126 188.436C15.4499 188.523 15.3566 188.582 15.2518 188.602C15.147 188.621 15.0386 188.6 14.9488 188.543C14.859 188.485 14.7945 188.396 14.7687 188.292Z"
    fill="#212751" />
  <path d="M150.522 295.797H34.1129L38.0034 315.952H146.631L150.522 295.797Z" fill="#212751" />
</svg>