<svg width="269" height="260" viewBox="0 0 269 260" fill="none" xmlns="http://www.w3.org/2000/svg">
<path d="M183.622 206.954V175.593L267.457 137.712V167.21L183.622 206.954Z" fill="#212751"/>
<path d="M180.838 76.7127C133.54 76.332 38.6594 75.5136 37.5174 75.2852L35.2334 109.259H179.125L180.838 76.7127Z" fill="#212751"/>
<path fill-rule="evenodd" clip-rule="evenodd" d="M185.948 44.7565C200.508 38.5859 245.058 19.7252 257.808 14.0302C255.168 13.6854 248.978 12.4965 216.143 8.93756C152.301 2.04168 140.19 4.33449 137.812 1.93282C139.195 0.573461 138.878 0.763639 139.362 0.763639C147.684 0.399029 232.848 5.20825 258.779 8.69978C265.956 9.6985 268.794 10.0988 268.893 13.2614C268.69 15.0171 267.704 15.6075 265.92 16.4596C256.012 21.4175 188.242 50.3921 186.863 50.6497C188.698 50.6497 37.5516 47.5188 33.4894 45.8662C33.2438 45.7323 33.0306 45.5461 32.8649 45.3208C32.6992 45.0955 32.585 44.8366 32.5303 44.5623L32.4946 44.2532C32.6413 41.479 94.0782 17.1017 122.902 2.64409L124.515 3.13555C123.937 5.05372 126.754 5.44123 126.021 5.86925C125.625 6.01588 47.2962 39.2874 43.4083 41.8119C196.219 43.8569 176.405 44.7565 185.948 44.7565Z" fill="#212751"/>
<path fill-rule="evenodd" clip-rule="evenodd" d="M184.783 73.3315C185.42 65.605 185.607 57.8478 185.341 50.0996C185.341 49.3386 185.119 49.7389 186.487 48.2646C187.878 49.5922 187.676 49.2197 187.735 50.0282C189.459 75.2893 190.03 77.0965 184.47 77.4928C160.627 79.7875 48.6127 80.267 34.9042 77.5206C31.8327 77.0925 31.377 76.189 31.1233 73.0819C30.905 64.4848 31.5529 55.8876 33.0574 47.4204C33.7985 43.7268 33.5765 44.46 35.1974 43.4573C36.6916 45.8827 35.887 43.1323 35.1974 51.9107C34.6753 58.9906 34.7243 66.101 35.3441 73.173C39.9374 73.8071 184.378 73.3712 184.783 73.3315ZM184.549 74.1004L184.584 74.041L184.557 74.1004L184.596 74.0132L184.549 74.1004ZM184.549 74.0726L184.584 74.0132L184.549 74.0726ZM184.584 74.0132V74.0568V74.0132ZM35.5066 73.9379L35.5343 74.029L35.5105 73.9538L35.5343 74.0132L35.4986 73.926L35.5066 73.9379Z" fill="#212751"/>
<path fill-rule="evenodd" clip-rule="evenodd" d="M36.3662 106.185C45.7549 106.185 16.1263 106.582 81.4153 106.582C81.5104 106.582 174.232 106.185 177.894 106.185C178.446 100.334 178.682 94.4575 178.6 88.5809C178.679 74.167 178.172 76.7232 179.761 75.019C181.192 76.3903 180.95 75.8117 181.049 77.5039C181.52 84.6376 183.344 105.492 181.596 109.102C180.716 110.687 181.671 110.83 156.933 111.722C131.402 112.459 66.2721 113.061 40.7137 111.072C35.5616 110.648 33.9367 110.477 32.9142 109.296C30.6513 105.928 33.1877 82.8779 34.6818 77.3731L36.1046 76.4695L37.0042 77.8884C35.7588 87.2691 35.5449 96.758 36.3662 106.185V106.185ZM177.66 107.132V107.105L177.625 107.192C177.635 107.156 177.648 107.122 177.664 107.089L177.645 107.148L177.668 107.073L177.66 107.132ZM177.688 107.073V107.045V107.073ZM36.5485 107.073V106.998L36.5722 107.057L36.5366 106.97L36.5485 107.073Z" fill="#212751"/>
<path fill-rule="evenodd" clip-rule="evenodd" d="M4.53463 143.78C4.51608 147.089 4.67617 150.397 5.01418 153.688C12.3183 154.564 179.615 155.836 180.031 155.836C180.903 150.308 180.669 132.965 180.649 127.155C180.649 125.439 180.443 126.029 181.791 124.579C183.229 125.954 182.979 125.371 183.075 127.068C183.728 137.542 185.088 155.23 183.514 158.606C182.666 160.212 182.468 160.069 169.758 160.517C138.41 161.531 10.7885 160.961 2.83444 157.421C1.47904 156.867 1.21351 155.804 1.0431 154.295C0.666874 144.4 1.46508 134.496 3.421 124.789L4.84376 123.885C7.06708 127.401 4.48311 121.844 4.53463 143.78ZM179.809 156.752V156.724L179.777 156.795L179.813 156.708L179.809 156.752ZM179.841 156.692V156.752V156.692ZM5.19648 154.52L5.16478 154.445L5.19252 154.52L5.1727 154.461V154.505L5.19648 154.52Z" fill="#212751"/>
<path fill-rule="evenodd" clip-rule="evenodd" d="M5.67331 194.924C5.65476 198.232 5.81484 201.54 6.15286 204.831C13.4569 205.707 180.753 206.979 181.17 206.979C182.041 201.451 181.808 184.108 181.788 178.298C181.788 176.582 181.582 177.173 182.929 175.722C184.368 177.097 184.118 176.515 184.213 178.211C184.867 188.686 186.227 206.373 184.653 209.75C183.805 211.355 183.607 211.212 170.897 211.66C139.549 212.675 11.9272 212.104 3.97311 208.565C2.61771 208.01 2.35218 206.948 2.18177 205.438C1.80555 195.543 2.60376 185.639 4.55967 175.932L5.98243 175.029C8.20576 178.544 5.62178 172.988 5.67331 194.924ZM180.948 207.895V207.867L180.916 207.939L180.952 207.851L180.948 207.895ZM180.979 207.836V207.895V207.836ZM6.33515 205.664L6.30345 205.588L6.33119 205.664L6.31137 205.604V205.648L6.33515 205.664Z" fill="#212751"/>
<path fill-rule="evenodd" clip-rule="evenodd" d="M5.67331 242.541C5.65476 245.85 5.81484 249.158 6.15286 252.449C13.4569 253.325 180.753 254.597 181.17 254.597C182.041 249.069 181.808 231.726 181.788 225.916C181.788 224.2 181.582 224.79 182.929 223.34C184.368 224.715 184.118 224.132 184.213 225.829C184.867 236.303 186.227 253.991 184.653 257.367C183.805 258.972 183.607 258.83 170.897 259.278C139.549 260.292 11.9272 259.722 3.97311 256.182C2.61771 255.628 2.35218 254.565 2.18177 253.056C1.80555 243.161 2.60376 233.257 4.55967 223.55L5.98243 222.646C8.20576 226.162 5.62178 220.605 5.67331 242.541ZM180.948 255.513V255.485L180.916 255.556L180.952 255.469L180.948 255.513ZM180.979 255.453V255.513V255.453ZM6.33515 253.281L6.30345 253.206L6.33119 253.281L6.31137 253.222V253.266L6.33515 253.281Z" fill="#212751"/>
<path fill-rule="evenodd" clip-rule="evenodd" d="M267.478 13.5588C268.164 17.4536 268.499 21.4023 268.477 25.3571V25.3571C268.505 28.7099 268.433 32.4353 268.314 35.8277C268.104 40.2664 268.124 39.894 267.87 40.5835C267.407 41.3762 267.316 41.4673 265.964 42.1688C257.313 46.6749 240.822 54.4308 231.009 58.8973C216.979 65.5537 202.564 71.3687 187.843 76.3113L186.297 75.6297L186.967 74.088C193.038 71.179 228.861 52.6474 263.138 37.627C263.309 36.3786 263.384 35.7762 263.436 35.3759C263.907 32.0033 264.347 28.5514 264.676 25.1748C266.178 10.9471 264.121 15.4611 266.111 12.5918L267.478 13.5588Z" fill="#212751"/>
<path d="M187.65 73.9075L185.549 46.0676L266.092 14.0256C266.267 20.6208 266.512 35.0368 266.092 39.9394C265.671 44.842 213.622 64.6275 187.65 73.9075Z" fill="#212751"/>
<path fill-rule="evenodd" clip-rule="evenodd" d="M255.025 49.8887C256.189 58.7195 256.392 67.6505 255.632 76.5251V76.5251C255.53 76.9021 255.346 77.2517 255.092 77.5486C254.838 77.8454 254.522 78.082 254.165 78.2411C230.441 89.8304 206.024 99.9425 181.053 108.52L179.507 107.842L180.177 106.3C200.076 96.1902 218.307 88.0142 236.161 80.1434C238.891 78.9545 246.536 75.6016 249.54 74.3691L249.576 74.4444L250.622 73.9728C254.839 43.29 251.177 52.552 253.658 48.9336L255.025 49.8887Z" fill="#212751"/>
<path fill-rule="evenodd" clip-rule="evenodd" d="M266.083 88.125C267.381 98.3268 267.678 108.631 266.971 118.891V118.891C266.329 120.1 266.087 120.012 262.96 121.689C237.154 135.545 210.473 147.707 183.087 158.098L181.541 157.417L182.211 155.879C187.498 153.529 231.152 130.432 262.021 116.049C263.098 107.119 263.703 98.1377 263.832 89.1434C263.761 88.3191 263.598 88.7907 264.716 87.1619L266.083 88.125Z" fill="#212751"/>
<path fill-rule="evenodd" clip-rule="evenodd" d="M267.222 139.269C268.519 149.47 268.817 159.775 268.109 170.034V170.034C267.467 171.243 267.226 171.156 264.099 172.832C238.292 186.689 211.611 198.851 184.225 209.242L182.68 208.56L183.349 207.023C188.636 204.672 232.29 181.575 263.159 167.193C264.237 158.262 264.842 149.281 264.971 140.287C264.899 139.463 264.737 139.934 265.854 138.305L267.222 139.269Z" fill="#212751"/>
<path fill-rule="evenodd" clip-rule="evenodd" d="M267.222 186.886C268.519 197.088 268.817 207.392 268.109 217.652V217.652C267.467 218.861 267.226 218.774 264.099 220.45C238.292 234.306 211.611 246.469 184.225 256.86L182.68 256.178L183.349 254.64C188.636 252.29 232.29 229.193 263.159 214.811C264.237 205.88 264.842 196.899 264.971 187.905C264.899 187.08 264.737 187.552 265.854 185.923L267.222 186.886Z" fill="#212751"/>
<path fill-rule="evenodd" clip-rule="evenodd" d="M9.74992 121.88C22.8561 123.188 180.054 120.271 180.054 120.667C183.697 120.588 173.087 123.394 259.848 86.3624C254.974 84.9911 251.974 83.9488 244.741 82.4983C243.156 82.201 243.758 82.2446 243.362 82.2446C242.64 82.1178 242.965 82.3517 241.8 80.8219C243.366 79.6329 242.795 79.7637 244.372 79.9817C251.446 81.0833 258.44 82.6455 265.31 84.6582C265.541 84.7784 265.742 84.9512 265.895 85.1627C266.048 85.3742 266.149 85.6185 266.191 85.8762C266.232 86.1339 266.213 86.3977 266.134 86.6466C266.056 86.8955 265.92 87.1225 265.738 87.3095C264.374 88.447 184.687 125.867 182.512 126.366C191.932 126.366 14.9496 129.588 3.77349 124.948C3.48367 124.838 3.22293 124.663 3.01152 124.437C2.8001 124.211 2.64367 123.938 2.55437 123.642C2.46507 123.345 2.4453 123.032 2.49658 122.726C2.54786 122.421 2.66882 122.131 2.85007 121.88C4.88317 119.395 29.851 108.405 34.5791 107.03L36.0851 107.771C34.2779 111.425 38.6334 105.837 9.74992 121.88ZM5.78677 124.294H5.75903L5.72731 124.325L5.77487 124.294H5.78677Z" fill="#212751"/>
<path fill-rule="evenodd" clip-rule="evenodd" d="M10.8886 173.024C23.9947 174.332 181.193 171.415 181.193 171.811C184.835 171.732 174.226 174.538 260.987 137.506C256.112 136.135 253.112 135.092 245.88 133.642C244.294 133.345 244.897 133.388 244.5 133.388C243.779 133.261 244.104 133.495 242.939 131.965C244.504 130.776 243.934 130.907 245.511 131.125C252.585 132.227 259.578 133.789 266.448 135.802C266.68 135.922 266.88 136.095 267.033 136.306C267.186 136.518 267.288 136.762 267.329 137.02C267.371 137.277 267.352 137.541 267.273 137.79C267.194 138.039 267.059 138.266 266.876 138.453C265.513 139.591 185.826 177.011 183.65 177.51C193.071 177.51 16.0882 180.732 4.91216 176.091C4.62234 175.982 4.36161 175.807 4.15019 175.581C3.93878 175.354 3.78235 175.082 3.69305 174.785C3.60375 174.489 3.58397 174.176 3.63525 173.87C3.68653 173.564 3.80749 173.275 3.98874 173.024C6.02184 170.539 30.9897 159.549 35.7177 158.174L37.2237 158.915C35.4165 162.569 39.772 156.981 10.8886 173.024ZM6.92544 175.437H6.8977L6.86598 175.469L6.91354 175.437H6.92544Z" fill="#212751"/>
<path fill-rule="evenodd" clip-rule="evenodd" d="M10.8886 220.641C23.9947 221.949 181.193 219.032 181.193 219.429C184.835 219.349 174.226 222.155 260.987 185.124C256.112 183.752 253.112 182.71 245.88 181.259C244.294 180.962 244.897 181.006 244.5 181.006C243.779 180.879 244.104 181.113 242.939 179.583C244.504 178.394 243.934 178.525 245.511 178.743C252.585 179.845 259.578 181.407 266.448 183.419C266.68 183.54 266.88 183.712 267.033 183.924C267.186 184.135 267.288 184.38 267.329 184.637C267.371 184.895 267.352 185.159 267.273 185.408C267.194 185.657 267.059 185.884 266.876 186.071C265.513 187.208 185.826 224.628 183.65 225.128C193.071 225.128 16.0882 228.35 4.91216 223.709C4.62234 223.599 4.36161 223.425 4.15019 223.198C3.93878 222.972 3.78235 222.7 3.69305 222.403C3.60375 222.106 3.58397 221.793 3.63525 221.488C3.68653 221.182 3.80749 220.893 3.98874 220.641C6.02184 218.156 30.9897 207.167 35.7177 205.791L37.2237 206.533C35.4165 210.187 39.772 204.599 10.8886 220.641ZM6.92544 223.055H6.8977L6.86598 223.087L6.91354 223.055H6.92544Z" fill="#212751"/>
<path fill-rule="evenodd" clip-rule="evenodd" d="M148.452 45.9534L150.434 46.9917C151.575 50.5268 151.325 46.4884 148.547 70.4892C148.226 73.204 148.587 72.3955 147.117 73.9689C145.674 72.4233 145.983 73.1762 145.71 70.4575C145.127 64.382 145.02 61.4414 144.984 57.6962C144.984 54.3592 145.187 49.0446 145.226 48.6483L146.264 46.6667L148.409 45.9692L148.452 45.9534Z" fill="#212751"/>
<path fill-rule="evenodd" clip-rule="evenodd" d="M62.935 75.8792L64.8254 77.1077C65.8202 81.5782 65.091 76.8184 64.0883 87.618C62.3564 107.83 63.5255 104.763 61.5519 106.883L60.3629 105.638C59.8041 99.9593 57.8067 86.5915 59.4752 78.2452L60.6998 76.3666L62.8954 75.8792H62.935Z" fill="#212751"/>
<path fill-rule="evenodd" clip-rule="evenodd" d="M125.724 123.687L127.705 124.753L128.363 126.917C127.174 138.683 127.685 143.503 126.275 152.114C125.997 153.724 126.275 153.173 124.781 154.492C123.243 152.594 123.913 154.302 123.516 148.674C122.606 141.263 122.256 133.794 122.47 126.33L123.544 124.349L125.696 123.695L125.724 123.687Z" fill="#212751"/>
<path fill-rule="evenodd" clip-rule="evenodd" d="M78.4264 174.83L80.4079 175.896L81.0658 178.06C79.8769 189.827 80.3881 194.646 78.9772 203.258C78.6998 204.867 78.9773 204.316 77.4831 205.636C75.9454 203.738 76.6152 205.446 76.2189 199.818C75.3087 192.407 74.9589 184.938 75.1726 177.474L76.2467 175.492L78.3986 174.838L78.4264 174.83Z" fill="#212751"/>
<path fill-rule="evenodd" clip-rule="evenodd" d="M148.433 222.448L150.415 223.514L151.073 225.678C149.884 237.445 150.395 242.264 148.984 250.876C148.707 252.485 148.984 251.934 147.49 253.254C145.952 251.355 146.622 253.063 146.226 247.436C145.316 240.025 144.966 232.555 145.179 225.091L146.253 223.11L148.405 222.456L148.433 222.448Z" fill="#212751"/>
</svg>
